<?xml version="1.0" standalone="no"?>
<!DOCTYPE svg PUBLIC "-//W3C//DTD SVG 20010904//EN"
 "http://www.w3.org/TR/2001/REC-SVG-20010904/DTD/svg10.dtd">
<svg version="1.0" xmlns="http://www.w3.org/2000/svg"
 width="1024.000000pt" height="1024.000000pt" viewBox="0 0 1024.000000 1024.000000"
 preserveAspectRatio="xMidYMid meet">

<g transform="translate(0.000000,1024.000000) scale(0.100000,-0.100000)"
fill="#000000" stroke="none">
<path d="M3830 7904 c-14 -2 -65 -9 -115 -15 -112 -14 -292 -58 -410 -99 -91
-33 -277 -121 -374 -179 -190 -113 -426 -327 -568 -516 -262 -346 -403 -724
-444 -1185 -15 -170 -6 -546 16 -690 73 -483 273 -901 591 -1238 398 -424 942
-652 1551 -652 451 0 829 124 1142 374 89 72 246 237 308 325 46 65 51 69 57
48 7 -30 -10 -267 -24 -332 -77 -354 -317 -618 -680 -750 -149 -54 -272 -76
-457 -82 l-173 -6 0 -338 0 -339 113 0 c421 1 780 88 1074 262 438 260 692
614 780 1088 17 87 18 181 18 1120 l0 1025 -1108 0 -1107 0 -3 -323 -2 -322
773 0 774 0 -7 -42 c-13 -76 -74 -250 -116 -328 -125 -231 -350 -453 -578
-568 -237 -120 -565 -179 -850 -153 -411 37 -716 174 -968 434 -244 252 -376
541 -428 940 -17 137 -20 375 -4 515 48 443 253 840 559 1085 202 161 442 248
740 267 356 23 642 -55 868 -236 155 -124 258 -284 318 -496 l19 -68 562 0
563 0 0 400 0 400 294 0 c310 0 401 -9 521 -50 275 -95 460 -289 529 -555 122
-477 -131 -941 -589 -1081 -83 -25 -104 -28 -268 -28 -114 -1 -176 -5 -173
-11 16 -39 502 -1175 579 -1355 53 -124 150 -351 215 -505 l119 -280 361 -3
c225 -1 362 1 362 7 0 10 -197 479 -320 761 -300 690 -394 910 -389 914 2 1
36 20 74 40 260 140 506 421 628 716 109 266 135 616 68 921 -117 528 -518
948 -1051 1102 -206 60 -217 60 -952 63 l-678 3 -2 -386 -3 -385 -60 88 c-78
116 -263 301 -382 382 -258 176 -563 280 -908 312 -104 9 -330 12 -385 4z"/>
</g>
</svg>
